<?xml version="1.0" encoding="UTF-8" standalone="no"?><!DOCTYPE svg PUBLIC "-//W3C//DTD SVG 1.1//EN" "http://www.w3.org/Graphics/SVG/1.1/DTD/svg11.dtd"><svg width="100%" height="100%" viewBox="0 0 324 52" version="1.1" xmlns="http://www.w3.org/2000/svg" xmlns:xlink="http://www.w3.org/1999/xlink" xml:space="preserve" xmlns:serif="http://www.serif.com/" style="fill-rule:evenodd;clip-rule:evenodd;stroke-linejoin:round;stroke-miterlimit:2;"><g><path d="M106.616,16.088c0.705,2.069 1.447,4.21 2.223,6.42c0.776,2.212 1.517,4.363 2.222,6.457c0.706,2.093 1.365,4.08 1.976,5.962c0.612,1.882 1.152,3.552 1.623,5.01l0.141,-0c0.424,-1.458 0.953,-3.128 1.588,-5.01c0.635,-1.882 1.317,-3.869 2.046,-5.962c0.729,-2.094 1.482,-4.245 2.258,-6.457c0.776,-2.21 1.517,-4.351 2.223,-6.42c1.693,-4.893 3.48,-9.973 5.362,-15.241l8.538,-0l-18.275,49.392l-8.185,-0l-17.993,-49.392l8.89,-0c1.883,5.268 3.669,10.348 5.363,15.241Z" style="fill:#111727;fill-rule:nonzero;"/><path d="M157.915,48.545c-0.141,-0.799 -0.212,-1.67 -0.212,-2.611c-1.081,1.553 -2.458,2.811 -4.127,3.775c-1.67,0.965 -3.846,1.447 -6.527,1.447c-3.387,0 -6.103,-0.847 -8.15,-2.54c-2.046,-1.694 -3.07,-4.022 -3.07,-6.986c-0,-2.258 0.601,-4.128 1.8,-5.609c1.2,-1.482 2.799,-2.67 4.798,-3.564c1.999,-0.893 4.304,-1.529 6.915,-1.905c2.611,-0.376 5.351,-0.564 8.221,-0.564l0,-2.117c0,-1.788 -0.495,-3.234 -1.483,-4.339c-0.987,-1.106 -2.539,-1.659 -4.656,-1.659c-2.117,-0 -3.693,0.518 -4.728,1.553c-1.035,1.034 -1.576,2.257 -1.623,3.669l-7.761,-1.129c0.187,-1.646 0.693,-3.093 1.517,-4.34c0.823,-1.246 1.881,-2.293 3.175,-3.139c1.293,-0.847 2.775,-1.494 4.445,-1.941c1.67,-0.447 3.423,-0.67 5.257,-0.67c2.022,0 3.869,0.259 5.539,0.776c1.669,0.517 3.105,1.281 4.304,2.293c1.2,1.011 2.14,2.27 2.823,3.775c0.681,1.506 1.022,3.269 1.022,5.292l-0,17.64c-0,1.035 0.071,1.893 0.212,2.576c0.141,0.682 0.329,1.352 0.565,2.011l-7.762,-0c-0.188,-0.33 -0.353,-0.894 -0.494,-1.694Zm-5.609,-3.81c1.011,-0.329 1.905,-0.812 2.681,-1.446c0.776,-0.636 1.399,-1.4 1.87,-2.294c0.47,-0.893 0.706,-1.929 0.706,-3.105l0,-2.751c-4.14,0 -7.48,0.447 -10.02,1.34c-2.54,0.894 -3.81,2.446 -3.81,4.657c-0,1.365 0.517,2.387 1.552,3.07c1.035,0.682 2.352,1.023 3.951,1.023c1.035,0 2.058,-0.165 3.07,-0.494Z" style="fill:#111727;fill-rule:nonzero;"/><rect x="174.92" y="0.847" width="8.044" height="49.392" style="fill:#111727;fill-rule:nonzero;"/><path d="M214.857,50.239l0,-5.01c-1.034,1.741 -2.375,3.163 -4.022,4.269c-1.646,1.105 -3.763,1.658 -6.35,1.658c-1.599,0 -3.105,-0.235 -4.516,-0.706c-1.411,-0.47 -2.646,-1.176 -3.704,-2.117c-1.058,-0.94 -1.893,-2.105 -2.506,-3.492c-0.611,-1.388 -0.916,-3.023 -0.916,-4.904l0,-23.144l7.973,-0l-0,21.168c-0,2.399 0.623,4.105 1.869,5.115c1.247,1.012 2.647,1.518 4.199,1.518c0.988,-0 1.94,-0.212 2.858,-0.635c0.917,-0.424 1.729,-1.058 2.434,-1.905c0.705,-0.847 1.27,-1.905 1.694,-3.175c0.423,-1.27 0.634,-2.729 0.634,-4.375l0,-17.711l7.974,-0l0,33.446l-7.621,-0Z" style="fill:#111727;fill-rule:nonzero;"/><path d="M251.937,17.393c1.717,1.011 3.07,2.222 4.057,3.634l0,-20.18l7.974,-0l0,49.392l-7.62,-0l0,-4.939c-0.471,0.752 -1.036,1.481 -1.694,2.187c-0.659,0.706 -1.435,1.329 -2.328,1.87c-0.894,0.541 -1.918,0.975 -3.07,1.305c-1.153,0.329 -2.458,0.494 -3.916,0.494c-2.117,0 -4.093,-0.412 -5.927,-1.235c-1.835,-0.823 -3.422,-1.999 -4.763,-3.528c-1.341,-1.529 -2.399,-3.375 -3.175,-5.539c-0.776,-2.164 -1.164,-4.61 -1.164,-7.338c-0,-2.728 0.388,-5.174 1.164,-7.338c0.776,-2.165 1.858,-4.01 3.246,-5.539c1.387,-1.529 3.01,-2.706 4.868,-3.529c1.858,-0.823 3.869,-1.234 6.033,-1.234c2.493,0 4.599,0.505 6.315,1.517Zm3.211,9.913c-0.565,-1.223 -1.27,-2.21 -2.117,-2.963c-0.847,-0.753 -1.788,-1.293 -2.822,-1.623c-1.036,-0.329 -2.023,-0.494 -2.964,-0.494c-1.364,-0 -2.576,0.282 -3.634,0.847c-1.058,0.564 -1.964,1.352 -2.716,2.364c-0.753,1.011 -1.329,2.21 -1.729,3.598c-0.4,1.388 -0.6,2.882 -0.6,4.481c-0,1.646 0.2,3.151 0.6,4.516c0.4,1.363 0.965,2.551 1.693,3.563c0.729,1.011 1.612,1.799 2.646,2.364c1.035,0.565 2.211,0.846 3.529,0.846c0.987,-0 1.999,-0.164 3.033,-0.494c1.035,-0.329 1.999,-0.87 2.893,-1.623c0.894,-0.752 1.623,-1.728 2.188,-2.928c0.564,-1.199 0.846,-2.693 0.846,-4.48l0,-3.528c0,-1.741 -0.282,-3.223 -0.846,-4.446Z" style="fill:#111727;fill-rule:nonzero;"/><path d="M274.588,1.305c0.917,-0.87 2.105,-1.305 3.563,-1.305c1.459,0 2.646,0.435 3.564,1.305c0.917,0.87 1.375,2.058 1.375,3.563c0,1.364 -0.447,2.517 -1.34,3.458c-0.894,0.941 -2.093,1.411 -3.599,1.411c-1.505,-0 -2.705,-0.47 -3.599,-1.411c-0.893,-0.941 -1.34,-2.094 -1.34,-3.458c-0,-1.505 0.459,-2.693 1.376,-3.563Zm7.585,15.488l-0,33.446l-8.044,-0l0,-33.446l8.044,-0Z" style="fill:#111727;fill-rule:nonzero;"/><path d="M313.713,17.146c2.07,0.846 3.834,2.046 5.292,3.598c1.458,1.553 2.576,3.411 3.352,5.575c0.776,2.163 1.164,4.562 1.164,7.197c0,2.634 -0.388,5.033 -1.164,7.197c-0.776,2.164 -1.894,4.022 -3.352,5.574c-1.458,1.553 -3.222,2.752 -5.292,3.599c-2.069,0.846 -4.398,1.27 -6.985,1.27c-2.587,0 -4.916,-0.424 -6.986,-1.27c-2.07,-0.847 -3.821,-2.046 -5.257,-3.599c-1.434,-1.552 -2.539,-3.41 -3.316,-5.574c-0.776,-2.164 -1.164,-4.563 -1.164,-7.197c-0,-2.635 0.388,-5.034 1.164,-7.197c0.777,-2.164 1.882,-4.022 3.316,-5.575c1.436,-1.552 3.187,-2.752 5.257,-3.598c2.07,-0.847 4.399,-1.27 6.986,-1.27c2.587,0 4.916,0.423 6.985,1.27Zm-3.175,26.954c1.082,-0.612 1.976,-1.435 2.681,-2.47c0.706,-1.035 1.235,-2.246 1.588,-3.633c0.352,-1.389 0.529,-2.882 0.529,-4.481c0,-1.599 -0.177,-3.093 -0.529,-4.481c-0.353,-1.388 -0.882,-2.599 -1.588,-3.633c-0.705,-1.035 -1.599,-1.859 -2.681,-2.47c-1.082,-0.612 -2.352,-0.918 -3.81,-0.918c-1.458,0 -2.717,0.306 -3.775,0.918c-1.059,0.611 -1.941,1.435 -2.646,2.47c-0.705,1.034 -1.235,2.245 -1.588,3.633c-0.352,1.388 -0.529,2.882 -0.529,4.481c-0,1.599 0.177,3.092 0.529,4.481c0.353,1.387 0.883,2.598 1.588,3.633c0.705,1.035 1.587,1.858 2.646,2.47c1.058,0.611 2.317,0.917 3.775,0.917c1.458,-0 2.728,-0.306 3.81,-0.917Z" style="fill:#111727;fill-rule:nonzero;"/><path d="M0,0.789l48.769,0l-0,8.239l-48.769,-0l0,-8.239Zm0,41.252l48.769,-0l-0,8.24l-48.769,0l0,-8.24Zm39.186,-5.511l-28.095,-0l0,-8.24l28.095,-0l0,8.24Zm20.674,-0l-14.635,-0l0,-8.24l14.635,-0l0,8.24Zm-28.094,-21.99l28.094,-0l0,8.239l-28.094,-0l0,-8.239Zm-20.675,-0l14.636,-0l0,8.239l-14.636,-0l0,-8.239Z" style="fill:url(#_Linear1);"/></g><defs><linearGradient id="_Linear1" x1="0" y1="0" x2="1" y2="0" gradientUnits="userSpaceOnUse" gradientTransform="matrix(59.8602,0,0,59.8602,1.09863e-06,50.281)"><stop offset="0" style="stop-color:#3065b0;stop-opacity:1"/><stop offset="0.3" style="stop-color:#3c83c4;stop-opacity:1"/><stop offset="0.6" style="stop-color:#1fbcee;stop-opacity:1"/><stop offset="0.7" style="stop-color:#23c4f2;stop-opacity:1"/><stop offset="1" style="stop-color:#5ec8d8;stop-opacity:1"/></linearGradient></defs></svg>