<?xml version="1.0" standalone="no"?>
<!DOCTYPE svg PUBLIC "-//W3C//DTD SVG 1.1//EN" "http://www.w3.org/Graphics/SVG/1.1/DTD/svg11.dtd">
<svg xmlns="http://www.w3.org/2000/svg">
<metadata>Generated by Fontastic.me</metadata>
<defs>
<font id="valudio-icons" horiz-adv-x="512">
<font-face font-family="valudio-icons" units-per-em="512" ascent="480" descent="-32"/>
<missing-glyph horiz-adv-x="512" />

<glyph glyph-name="add" unicode="&#57344;" d="M384 235l-107 0 0-107c0-12-9-21-21-21-12 0-21 9-21 21l0 107-107 0c-12 0-21 9-21 21 0 12 9 21 21 21l107 0 0 107c0 12 9 21 21 21 12 0 21-9 21-21l0-107 107 0c12 0 21-9 21-21 0-12-9-21-21-21z"/>
<glyph glyph-name="points" unicode="&#57345;" d="M107 299c23 0 42-19 42-43 0-24-19-43-42-43-24 0-43 19-43 43 0 24 19 43 43 43z m149 0c24 0 43-19 43-43 0-24-19-43-43-43-24 0-43 19-43 43 0 24 19 43 43 43z m149 0c24 0 43-19 43-43 0-24-19-43-43-43-23 0-42 19-42 43 0 24 19 43 42 43z"/>
<glyph glyph-name="received" unicode="&#57346;" d="M189 211c0-3 1-6 2-8 2-6 6-10 12-12 2-1 5-2 8-2l90 0c12 0 22 10 22 22 0 12-10 21-22 21l-39 0 54 54c9 8 9 22 0 30-8 9-21 9-30 0l-54-54 0 39c0 6-2 11-6 15-4 4-10 7-15 7-6 0-11-3-15-7-4-4-7-9-7-15z m-84-106c83-83 219-83 302 0 83 83 83 219 0 302-83 83-219 83-302 0-40-40-62-94-62-151 0-57 22-111 62-151z m272 272c66-67 66-175 0-242-67-66-175-66-242 0-66 67-66 175 0 242 32 32 76 50 121 50 45 0 89-18 121-50z"/>
<glyph glyph-name="attention" unicode="&#57347;" d="M256 235c-12 0-21 9-21 21l0 85c0 12 9 22 21 22 12 0 21-10 21-22l0-85c0-12-9-21-21-21z m8-84c-5-2-11-2-16 0-3 1-5 3-7 5-2 2-4 4-5 7-1 2-1 5-1 8 0 5 2 11 6 15 2 2 4 3 7 4 6 3 14 2 20-2 6-4 9-10 9-17 0-6-2-11-6-15-2-2-4-4-7-5z m-8-108c-118 0-213 95-213 213 0 118 95 213 213 213 118 0 213-95 213-213 0-57-22-111-62-151-40-40-94-62-151-62z m0 384c-94 0-171-77-171-171 0-94 77-171 171-171 94 0 171 77 171 171 0 45-18 89-50 121-32 32-76 50-121 50z"/>
<glyph glyph-name="calendar" unicode="&#57348;" d="M341 469c12 0 22-9 22-21l0-21 21 0c35 0 64-29 64-64l0-256c0-36-29-64-64-64l-256 0c-35 0-64 28-64 64l0 256c0 35 29 64 64 64l21 0 0 21c0 12 10 21 22 21 11 0 21-9 21-21l0-21 128 0 0 21c0 12 10 21 21 21z m64-234l-298 0 0-128c0-12 9-22 21-22l256 0c12 0 21 10 21 22z m-234-43c11 0 21-10 21-21 0-12-10-22-21-22-12 0-22 10-22 22 0 11 10 21 22 21z m170 0c12 0 22-10 22-21 0-12-10-22-22-22l-85 0c-12 0-21 10-21 22 0 11 9 21 21 21z m-192 192l-21 0c-12 0-21-10-21-21l0-86 298 0 0 86c0 11-9 21-21 21l-21 0 0-21c0-12-10-22-22-22-11 0-21 10-21 22l0 21-128 0 0-21c0-12-10-22-21-22-12 0-22 10-22 22z"/>
<glyph glyph-name="right" unicode="&#57349;" d="M213 106c-5 0-9 2-13 5-5 4-7 9-8 14 0 6 1 12 5 16l96 114-93 115c-3 4-5 10-4 16 0 5 3 10 8 14 4 4 10 6 16 5 6 0 11-3 15-8l103-128c6-8 6-19 0-27l-107-128c-4-6-11-8-18-8z"/>
<glyph glyph-name="search" unicode="&#57350;" d="M442 100l-73 73c24 30 36 66 36 104 0 95-76 171-170 171-95 0-171-76-171-171 0-94 76-170 171-170 38 0 74 12 104 36l73-73c4-4 9-6 15-6 5 0 11 2 15 6 4 4 6 10 6 15 0 6-2 11-6 15z m-335 177c0 71 57 128 128 128 70 0 128-57 128-128 0-70-58-128-128-128-71 0-128 58-128 128z"/>
<glyph glyph-name="check" unicode="&#57351;" d="M224 155c-6 0-11 2-15 6l-91 91c-5 5-8 13-6 21 2 7 8 13 16 15 7 2 15 0 20-6l76-75 135 135c9 9 22 9 31 0 8-8 8-21 0-30l-151-151c-4-4-10-6-15-6z"/>
<glyph glyph-name="close" unicode="&#57352;" d="M286 256l92 92c8 8 8 21 0 30-9 8-22 8-30 0l-92-92-92 92c-8 8-21 8-30 0-8-9-8-22 0-30l92-92-92-92c-4-4-6-9-6-15 0-5 2-11 6-15 4-4 10-6 15-6 6 0 11 2 15 6l92 92 92-92c4-4 9-6 15-6 5 0 11 2 15 6 4 4 6 10 6 15 0 6-2 11-6 15z"/>
<glyph glyph-name="sent" unicode="&#57353;" d="M323 301c0 3-1 6-2 8-2 6-6 10-12 12-2 1-5 2-8 2l-90 0c-12 0-22-10-22-22 0-12 10-21 22-21l39 0-54-54c-9-9-9-22 0-30 8-9 22-9 30 0l54 54 0-39c0-6 2-11 6-15 4-4 10-7 15-7 6 0 11 3 15 7 4 4 7 9 7 15z m84 106c-83 83-219 83-302 0-83-83-83-219 0-302 83-83 219-83 302 0 40 40 62 94 62 151 0 57-22 111-62 151z m-272-272c-66 67-66 175 0 242 67 66 175 66 242 0 66-67 66-175 0-242-32-32-76-50-121-50-45 0-89 18-121 50z"/>
<glyph glyph-name="up" unicode="&#57354;" d="M416 227c0 7-3 13-8 17l-128 103c-8 7-19 7-27 0l-128-107c-9-7-10-21-3-30 8-9 21-10 30-2l115 95 114-92c6-6 15-7 23-3 7 3 12 11 12 19z"/>
<glyph glyph-name="dashboard" unicode="&#57355;" d="M256 469c118 0 213-95 213-213 0-118-95-213-213-213-118 0-213 95-213 213 0 118 95 213 213 213z m133-320l-266 0c31-39 79-64 133-64 54 0 102 25 133 64z m-133 278c-94 0-171-77-171-171 0-23 5-44 13-64l121 0-67 117c-5 10-3 22 6 28l2 2c10 5 23 2 29-8l79-139 146 0c8 20 13 41 13 64 0 94-77 171-171 171z"/>
<glyph glyph-name="down" unicode="&#57356;" d="M416 306c0-7-3-13-8-17l-128-103c-8-6-19-6-27 0l-128 107c-9 7-10 21-3 30 8 9 21 10 30 3l115-96 114 93c6 5 15 6 23 2 7-3 12-11 12-19z"/>
<glyph glyph-name="download" unicode="&#57357;" d="M448 213c-12 0-21-9-21-21l0-85c0-12-10-22-22-22l-298 0c-12 0-22 10-22 22l0 85c0 12-9 21-21 21-12 0-21-9-21-21l0-85c0-36 28-64 64-64l298 0c36 0 64 28 64 64l0 85c0 12-9 21-21 21z m-207-36c2-2 4-4 7-5 5-2 11-2 16 0 3 1 5 3 7 5l85 85c9 9 9 22 0 30-8 9-21 9-30 0l-49-49 0 205c0 12-9 21-21 21-12 0-21-9-21-21l0-205-49 49c-6 6-13 8-21 6-7-2-13-8-15-15-2-8 0-15 6-21z"/>
<glyph glyph-name="filter" unicode="&#57358;" d="M341 171c12 0 22-10 22-22 0-11-10-21-22-21l-170 0c-12 0-22 10-22 21 0 12 10 22 22 22z m43 106c12 0 21-9 21-21 0-12-9-21-21-21l-256 0c-12 0-21 9-21 21 0 12 9 21 21 21z m64 107c12 0 21-10 21-21 0-12-9-22-21-22l-384 0c-12 0-21 10-21 22 0 11 9 21 21 21z"/>
<glyph glyph-name="info" unicode="&#57359;" d="M256 277c-12 0-21-9-21-21l0-85c0-12 9-22 21-22 12 0 21 10 21 22l0 85c0 12-9 21-21 21z m8 84c-5 2-11 2-16 0-3-1-5-3-7-5-2-2-4-4-5-7-1-2-1-5-1-8 0-5 2-11 6-15 2-2 4-3 7-4 6-3 14-2 20 2 6 4 9 10 9 17 0 6-2 11-6 15-2 2-4 4-7 5z m-8 108c-118 0-213-95-213-213 0-118 95-213 213-213 118 0 213 95 213 213 0 57-22 111-62 151-40 40-94 62-151 62z m0-384c-94 0-171 77-171 171 0 94 77 171 171 171 94 0 171-77 171-171 0-45-18-89-50-121-32-32-76-50-121-50z"/>
<glyph glyph-name="language" unicode="&#57360;" d="M469 256c0 57-22 111-62 151-40 40-94 62-151 62-118 0-213-95-213-213 0-118 95-213 213-213 118 0 213 95 213 213z m-44 21l-62 0c-4 51-21 99-50 140 61-22 104-76 112-140z m-231-42l126 0c-5-53-28-103-64-141-36 38-58 88-62 141z m0 42c5 53 27 102 62 141 36-38 59-88 64-141z m7 140c-29-41-46-89-50-140l-64 0c8 65 53 120 114 140z m-114-182l64 0c3-51 21-99 50-140-62 21-106 75-114 140z m225-140c29 41 47 89 51 140l63 0c-9-65-53-119-114-140z"/>
<glyph glyph-name="left" unicode="&#57361;" d="M295 107c-6 0-12 3-16 8l-103 128c-7 7-7 19 0 27l106 128c8 9 21 10 30 2 9-7 11-21 3-30l-95-114 92-114c5-7 6-16 3-23-4-8-11-12-20-12z"/>
<glyph glyph-name="ok" unicode="&#57362;" d="M314 314l-92-92-35 35c-5 6-14 9-21 7-8-2-14-8-16-16-2-7 1-16 7-21l50-50c4-4 9-6 15-6 6 0 11 2 15 6l107 107c4 4 6 9 6 15 0 5-2 11-6 15-9 8-22 8-30 0z m-58 155c-118 0-213-95-213-213 0-118 95-213 213-213 118 0 213 95 213 213 0 57-22 111-62 151-40 40-94 62-151 62z m0-384c-94 0-171 77-171 171 0 94 77 171 171 171 94 0 171-77 171-171 0-45-18-89-50-121-32-32-76-50-121-50z"/>
<glyph glyph-name="pdf" unicode="&#57363;" d="M480 512c18 0 32-14 32-32l0-448c0-18-14-32-32-32l-448 0c-18 0-32 14-32 32l0 448c0 18 14 32 32 32z m-367-170l-66 0 0-176 34 0 0 67 32 0c18 0 32 5 43 15 10 9 15 22 15 39 0 17-5 31-15 41-11 9-25 14-43 14z m141 0l-62 0 0-176 61 0c20 0 36 5 48 16 11 11 17 29 17 54l0 36c0 25-6 43-17 54-11 11-27 16-47 16z m204 0l-112 0 0-176 33 0 0 73 68 0 0 29-68 0 0 45 79 0z m-204-29c10 0 18-3 23-10 5-7 7-18 7-33l0-34c0-14-2-24-7-31-5-7-13-10-23-10l-28 0 0 118z m-142 0c8 0 14-2 19-7 4-4 6-11 6-19 0-8-2-14-6-18-5-5-11-7-19-7l-31 0 0 51z"/>
<glyph glyph-name="img" unicode="&#57364;" d="M480 512c18 0 32-14 32-32l0-448c0-18-14-32-32-32l-448 0c-18 0-32 14-32 32l0 448c0 18 14 32 32 32z m-137-256l-103-129-78 95-98-128 386 0z"/>
<glyph glyph-name="baan" unicode="&#57365;" d="M480 512c18 0 32-14 32-32l0-448c0-18-14-32-32-32l-448 0c-18 0-32 14-32 32l0 448c0 18 14 32 32 32z m-221-161l-5 0-7 0c-103-3-211-63-212-127 0-21 16-40 33-40 15 0 57 15 105 49l3 4 2-1-2-6c-4-12-6-22-6-28 0-13 6-19 17-19 15 0 37 16 70 39l-3 3-4-3c-14-9-19-12-24-12-4 0-7 2-7 7 1 3 2 8 3 13z m224 0l-5 0-7 0c-103-3-211-63-212-127 0-21 15-40 33-40 15 0 57 15 105 49l3 4 2-1-2-6c-4-12-6-22-6-28 0-13 6-19 17-19 15 0 37 16 70 39l-3 3-4-3c-14-9-19-12-24-12-4 0-7 2-7 7 1 3 2 8 3 13z m-304-97l-6-5c-36-25-70-38-78-38-7 0-13 12-13 27 0 23 13 47 28 64 17 17 49 30 93 30z m224 0l-6-5c-36-25-70-38-78-38-7 0-13 12-13 27 0 23 13 47 28 64 17 17 49 30 93 30z"/>
<glyph glyph-name="xml" unicode="&#57366;" d="M480 512c18 0 32-14 32-32l0-448c0-18-14-32-32-32l-448 0c-18 0-32 14-32 32l0 448c0 18 14 32 32 32z m-394-176l-37 0 47-79-51-85 35 0 34 60 33-60 37 0-52 86 47 78-36 0-28-53z m141 0l-31 0 0-164 31 0 0 98 31-67 21 0 32 66 0-97 31 0 0 164-31 0-42-91z m174 0l-31 0 0-164 103 0 0 27-72 0z"/>
<glyph glyph-name="sap" unicode="&#57367;" d="M480 512c18 0 32-14 32-32l0-448c0-18-14-32-32-32l-448 0c-18 0-32 14-32 32l0 448c0 18 14 32 32 32z m-198-160l-54 0-48-122c-6 27-34 38-52 42-47 12-50 18-50 27 0 24 62 13 78 7 4 12 13 35 13 35 0 0-17 11-69 11-53 0-68-32-68-53 0-20 11-43 40-52 31-9 54-11 54-26 0-16-52-19-82 0l-12-40c0 0 17-14 68-14 27 0 49 7 63 19l-7-19 54 0 9 27c11-4 23-7 37-7 14 0 26 3 37 7l9-27 85 0 0 46 23 0c39 0 70 31 70 69 0 39-31 70-70 70l-69 0 0-147z m-26-53l23-66c-6-5-14-6-23-6-9 0-17 1-23 6z m154 7c13 0 24-11 24-24 0-12-11-23-24-23l-23 0 0 47z"/>
<glyph glyph-name="excel" unicode="&#57368;" d="M480 512c18 0 32-14 32-32l0-448c0-18-14-32-32-32l-448 0c-18 0-32 14-32 32l0 448c0 18 14 32 32 32z m-32-96l-384 0 0-320 384 0z m-288-224l0-64-64 0 0 64z m256 0l0-64-224 0 0 64z m0 96l0-64-224 0 0 64z m-256 0l0-64-64 0 0 64z m256 96l0-64-224 0 0 64z m-256 0l0-64-64 0 0 64z"/>
<glyph glyph-name="html" unicode="&#57369;" d="M480 512c18 0 32-14 32-32l0-448c0-18-14-32-32-32l-448 0c-18 0-32 14-32 32l0 448c0 18 14 32 32 32z m-173-83l-3 0c-7-1-12-5-16-13-17-52-34-103-52-155-17-51-34-103-51-154l0-2 0-2 0-2c0-6 2-10 6-13 3-3 7-4 11-4 3 0 6 1 8 3 2 1 4 2 5 4l3 3 77 232 26 77c1 4 1 7 1 10 0 5-2 9-6 12-3 2-6 3-9 4z m-156-86c-2 0-4-1-6-1l-4-2-13-10-22-17-23-18-25-19-18-15c-5-4-8-9-8-15 0-5 2-9 7-14l12-8 12-10 14-10 41-30 24-18c4-2 7-3 10-3 5 0 9 2 12 5 4 3 5 7 5 11 0 4-1 7-2 10l-3 4-31 23-23 17-32 24 9 6 62 49 13 10c4 5 5 9 5 14 0 5-1 9-4 12-3 3-7 5-12 5z m203 0c-4 0-8-2-12-5-3-3-4-7-4-12 0-4 1-8 3-11l2-3 4-3 67-52 13-10-32-24-23-17-31-23c-3-5-5-9-5-14 0-4 2-8 5-11 3-3 7-5 12-5 3 0 7 1 11 3l24 18 61 45 17 13c5 5 7 9 7 14 0 5-2 9-5 13l-3 2-14 11-21 17-31 24-17 13-15 13-3 1c-4 2-7 3-10 3z"/>
<glyph glyph-name="ifs" unicode="&#57370;" d="M32 512l308 0c-5-3-9-7-14-12-20-20-31-41-32-61-1-20 6-38 20-52 16-16 34-23 52-19 10 2 23 8 41 18l7 4 26 17c10 6 18 10 25 11 7 2 14 0 19-5 9-9 11-20 5-33-3-7-9-14-17-22-13-14-26-20-39-19-5 1-11 3-18 8l-4 3-33-33c17-16 37-24 58-21 22 2 44 14 65 35 4 4 8 8 11 12l0-311c0-18-14-32-32-32l-448 0c-18 0-32 14-32 32l0 448c0 18 14 32 32 32l308 0z m72-244l-34-34 163-163 33 34z m147 147l-115-116 162-162 34 34-68 68 71 71-28 29-72-72-37 38 82 81z m229 97c18 0 32-14 32-32l0-29c-14 13-29 18-45 16-10-1-21-5-34-12l-6-4-40-24c-11-7-18-11-23-12-8-2-15 0-21 6-6 6-8 13-7 22 2 9 7 18 16 26 8 8 16 14 24 16 11 4 21 2 30-5l4-3 32 33-2 2z"/>
<glyph glyph-name="txt" unicode="&#57371;" d="M480 512c18 0 32-14 32-32l0-448c0-18-14-32-32-32l-448 0c-18 0-32 14-32 32l0 448c0 18 14 32 32 32z m-128-352l-288 0 0-64 288 0z m96 128l-384 0 0-64 384 0z m0 128l-384 0 0-64 384 0z"/>
<glyph glyph-name="edi" unicode="&#57372;" d="M480 512c18 0 32-14 32-32l0-448c0-18-14-32-32-32l-448 0c-18 0-32 14-32 32l0 448c0 18 14 32 32 32z m-397-237c-10 0-19-8-19-19 0-77 46-146 116-176 71-30 152-16 208 37l0-34c0-10 9-19 19-19 11 0 19 9 19 19l0 87c0 10-8 18-18 19l-87 0c-11 0-19-9-19-20 0-10 8-19 19-19l46 0c-43-45-110-59-168-36-58 23-96 79-97 142 0 11-8 19-19 19z m173 173c-49 0-97-19-132-53l0 34c0 10-9 19-19 19-11 0-19-9-19-19l0-87c0-10 8-19 19-19l86 0c11 0 19 9 19 19 0 11-8 20-19 20l-46 0c43 45 110 59 168 36 58-23 96-79 97-142 0-11 8-19 19-19 10 0 19 8 19 19 0 51-20 100-56 136-36 36-85 56-136 56z"/>
<glyph glyph-name="hide" unicode="&#57373;" d="M80 447c7 2 15 0 21-5l341-342c4-4 6-9 6-15 0-5-2-11-6-15-4-4-10-6-15-6-6 0-11 2-15 6l-120 120c-30-15-65-10-89 13-23 23-28 59-13 88l-120 120c-5 6-7 14-5 21 2 8 7 13 15 15z m27-103l31-30c-18-17-35-37-48-58 19-30 79-109 171-107 12 1 24 2 36 6l34-34c-22-9-46-14-69-14l-5 0c-126 0-198 115-211 138-4 7-4 15 0 22 16 28 37 54 61 77z m143 61c128 4 203-115 217-138 4-7 4-15 1-22-17-28-38-55-63-77l-32 30c19 17 35 37 49 58-19 30-79 109-171 107-12-1-24-3-36-6l-34 34c22 9 46 14 69 14z m-26-148l0-1c0-18 14-32 32-32l1 0z"/>
<glyph glyph-name="eye" unicode="&#57374;" d="M250 405c128 4 203-115 217-138 3-7 3-15 0-22-19-32-87-135-205-138l-5 0c-126 0-198 115-211 138-4 7-4 15 0 22 18 32 86 135 204 138z m9-42l-7 0c-85-3-141-73-162-107 19-30 79-109 171-107 85 2 140 73 162 107-19 30-79 109-171 107z m-3-32c41 0 75-34 75-75 0-41-34-75-75-75-41 0-75 34-75 75 0 41 34 75 75 75z m0-43c-18 0-32-14-32-32 0-18 14-32 32-32 18 0 32 14 32 32 0 18-14 32-32 32z"/>
<glyph glyph-name="menu" unicode="&#57375;" d="M427 149c11 0 21-9 21-21 0-12-10-21-21-21l-342 0c-11 0-21 9-21 21 0 12 10 21 21 21z m0 128c11 0 21-9 21-21 0-12-10-21-21-21l-342 0c-11 0-21 9-21 21 0 12 10 21 21 21z m0 128c11 0 21-9 21-21 0-12-10-21-21-21l-342 0c-11 0-21 9-21 21 0 12 10 21 21 21z"/>
<glyph glyph-name="print" unicode="&#57376;" d="M149 299c-11 0-21-10-21-22 0-11 10-21 21-21 12 0 22 10 22 21 0 12-10 22-22 22z m256 85l-21 0 0 64c0 12-10 21-21 21l-214 0c-11 0-21-9-21-21l0-64-21 0c-36 0-64-29-64-64l0-128c0-35 28-64 64-64l21 0 0-64c0-12 10-21 21-21l214 0c11 0 21 9 21 21l0 64 21 0c36 0 64 29 64 64l0 128c0 35-28 64-64 64z m-234 43l170 0 0-43-170 0z m170-342l-170 0 0 86 170 0z m86 107c0-12-10-21-22-21l-21 0 0 21c0 12-10 21-21 21l-214 0c-11 0-21-9-21-21l0-21-21 0c-12 0-22 9-22 21l0 128c0 12 10 21 22 21l298 0c12 0 22-9 22-21z"/>
<glyph glyph-name="user" unicode="&#57377;" d="M316 250c13 15 21 34 21 53 0 45-36 81-80 81-45 0-81-36-81-81 0-19 8-38 21-53-38-19-64-56-69-98-1-12 7-23 19-24 12-1 22 7 24 19 5 43 41 75 84 75 43 0 80-32 85-75 1-11 11-20 23-19l2 0c12 1 20 12 19 23-5 43-30 80-68 99z m-60 15c-15 0-29 10-35 24-6 14-3 30 8 41 11 11 27 14 42 8 14-5 23-19 23-35 0-21-17-38-38-38z m149 204l-298 0c-36 0-64-28-64-64l0-298c0-36 28-64 64-64l298 0c36 0 64 28 64 64l0 298c0 36-28 64-64 64z m22-362c0-12-10-22-22-22l-298 0c-12 0-22 10-22 22l0 298c0 12 10 22 22 22l298 0c12 0 22-10 22-22z"/>
<glyph glyph-name="export" unicode="&#57378;" d="M256 469c34 0 62-26 64-60l0-4 0-21c0-12-10-21-21-21-11 0-20 8-22 18l0 3 0 21c0 11-8 20-19 22l-2 0-128 0c-11 0-20-9-21-19l0-3 0-298c0-11 8-20 19-22l2 0 128 0c11 0 20 9 21 19l0 3 0 21c0 12 10 21 22 21 11 0 20-8 21-19l0-2 0-21c0-34-27-62-60-64l-4 0-128 0c-34 0-62 26-64 60l0 4 0 298c0 34 27 62 60 64l4 0z m113-113c8 9 22 9 30 0l85-85c2-2 4-4 5-7 2-5 2-11 0-16-1-3-3-5-5-7l-85-85c-5-6-13-8-21-6-7 2-13 8-15 15-2 8 0 15 6 21l49 49-205 0c-11 0-21 9-21 21 0 12 10 21 21 21l205 0-49 49c-9 9-9 22 0 30z"/>
<glyph glyph-name="map" unicode="&#57379;" d="M435 386l-85 39-17 0-77-35-77 35-1 0-2 2-13 0-85-39c-9-3-15-12-14-21l0-260c0-8 4-14 10-18 3-2 7-4 11-4 3 0 6 1 9 2l77 35 76-35 1 0c5-2 11-2 16 0l1 0 76 35 77-35c3-1 6-2 9-2 4 0 8 2 11 4 6 4 10 10 10 18l0 260c0 8-5 16-13 19z m-328-33l42 19 0-213-42-19z m85 19l43-19 0-213-43 19z m85-19l43 19 0-213-43-19z m128-213l-42 19 0 213 42-19z"/>
<glyph glyph-name="edit" unicode="&#57380;" d="M327 442l-246-246c-3-2-5-5-6-9l-32-117c-4-16 11-31 27-27l117 32c4 1 7 3 9 6l247 246c21 20 29 50 21 78-7 29-29 51-58 58-28 8-58 0-79-21z m68-20c14-4 24-14 28-28l1-3c2-12-2-25-11-34l-243-242-76-21 21 76 243 242c9 9 21 13 34 11z"/>
<glyph glyph-name="documents" unicode="&#57381;" d="M427 321c-1 2-1 4-2 6l0 2c-1 2-2 4-4 6l-128 128c-1 2-3 3-6 4l-2 0c-2 1-4 2-6 2l-130 0c-35 0-64-28-64-64l0-298c0-36 29-64 64-64l214 0c35 0 64 28 64 64z m-128 76l55-56-34 0c-12 0-21 10-21 22z m85-290c0-12-10-22-21-22l-214 0c-11 0-21 10-21 22l0 298c0 12 10 22 21 22l107 0 0-64c0-36 29-64 64-64l64 0z"/>
<glyph glyph-name="delete" unicode="&#57382;" d="M299 491c34 0 62-27 64-61l0-3 0-22 85 0c12 0 21-9 21-21 0-11-8-20-19-21l-2 0-21 0 0-278c0-34-27-62-61-64l-3 0-214 0c-34 0-62 27-64 61l0 3 0 278-21 0c-12 0-21 9-21 21 0 11 8 20 19 21l2 0 85 0 0 22c0 34 27 62 61 64l3 0z m85-128l-256 0 0-278c0-11 8-20 19-21l2 0 214 0c11 0 20 8 21 19l0 2z m-171-64c11 0 20-9 22-19l0-3 0-128c0-11-10-21-22-21-11 0-20 8-21 19l0 2 0 128c0 12 10 22 21 22z m86 0c11 0 20-9 21-19l0-3 0-128c0-11-10-21-21-21-11 0-20 8-22 19l0 2 0 128c0 12 10 22 22 22z m0 149l-86 0c-11 0-20-8-21-19l0-2 0-22 128 0 0 22c0 11-8 20-19 21z"/>
<glyph glyph-name="reports" unicode="&#57383;" d="M256 410c-14 0-26-12-26-26l0-256c0-14 12-26 26-26 14 0 26 12 26 26l0 256c0 14-12 26-26 26z m-128-154c-14 0-26-11-26-26l0-102c0-14 12-26 26-26 14 0 26 12 26 26l0 102c0 15-12 26-26 26z m256 51c-14 0-26-11-26-25l0-154c0-14 12-26 26-26 14 0 26 12 26 26l0 154c0 14-12 25-26 25z m51 205l-358 0c-43 0-77-34-77-77l0-358c0-43 34-77 77-77l358 0c43 0 77 34 77 77l0 358c0 43-34 77-77 77z m26-435c0-14-12-26-26-26l-358 0c-14 0-26 12-26 26l0 358c0 14 12 26 26 26l358 0c14 0 26-12 26-26z"/>
<glyph glyph-name="projects" unicode="&#57384;" d="M384 267l-146-147c-3-3-7-5-11-6l-93-23c-17-4-33 11-29 28l24 93c1 4 3 8 6 11l221 221c6 7 14 12 22 15l-1 0c-4 4-10 6-16 6l-140 0 0-139 0-3c-1-11-9-19-18-20l-3 0-142 0 0-233c0-13 11-23 23-23l280 0c13 0 23 10 23 23z m42 144c-10 10-27 10-37 0l-217-216-12-49 49 12 217 216c9 10 10 25 2 35z m-246 27l-89-89 89 0z m251-125l0-243c0-39-32-70-70-70l-280 0c-38 0-69 31-69 70l0 256c0 6 2 12 6 16l163 163c5 5 11 7 17 7l163 0c31 0 58-21 67-49l0-1c12-3 22-9 31-18 28-28 28-74 0-103z"/>
<glyph glyph-name="worksteps" unicode="&#57385;" d="M358 435c41 0 75-32 77-72l0-5 0-156c44-12 77-52 77-100 0-56-46-102-102-102-57 0-103 46-103 102 0 48 33 88 77 100l0 156c0 14-10 24-23 26l-3 0-51 0c-14 0-25 11-25 26 0 13 9 24 22 25l3 0z m-230 77c57 0 102-46 102-102 0-48-32-88-76-100l0-223 58 59c10 10 27 10 37 0 10-10 10-26 0-36l-103-103c-2-2-5-4-8-5-6-3-13-3-20 0-3 1-6 3-8 5l-102 103c-7 6-10 16-7 25 2 9 9 15 18 18 9 2 18 0 25-7l59-59 0 223c-45 12-77 52-77 100 0 56 45 102 102 102z m282-358c-29 0-52-23-52-52 0-28 23-51 52-51 28 0 51 23 51 51 0 29-23 52-51 52z m-282 307c-28 0-51-23-51-51 0-29 23-52 51-52l0 0 0 0c0 0 0 0 0 0 28 1 51 23 51 52 0 28-23 51-51 51z"/>
<glyph glyph-name="workers" unicode="&#57386;" d="M98 242c9 4 18 2 25-3 7-6 10-14 9-23-1-9-7-16-16-19-33-13-55-46-55-81l0-43c0-13 11-24 24-24l195 0c14 0 25 11 25 24l0 40c0 37-23 70-58 84-8 3-14 10-16 19-1 8 2 17 9 23 7 5 16 7 25 3 53-20 89-71 89-129l0-40c0-40-33-73-74-73l-195 0c-40 0-73 33-73 73l0 43c0 55 34 106 86 126z m85 246c54 0 97-44 97-98l0-49c0-54-43-97-97-97-54 0-98 43-98 97l0 49c0 54 44 98 98 98z m0-49c-27 0-49-22-49-49l0-49c0-27 22-48 49-48 27 0 49 21 49 48l0 49c0 27-22 49-49 49z m219-415c-13 0-24 11-24 25 0 13 11 24 24 24l25 0c13 0 24 11 24 25l0 44c0 36-23 67-56 79-9 2-15 9-17 18-1 8 2 17 8 23 7 6 16 8 24 5 54-18 90-68 90-125l0-44c0-41-33-74-73-74z m-73 439c-13 0-24 11-24 25 0 13 11 24 24 24 54 0 98-44 98-98l0-48c0-54-44-98-98-98-13 0-24 11-24 25 0 13 11 24 24 24 27 0 49 22 49 49l0 48c0 27-22 49-49 49z"/>
<glyph glyph-name="material" unicode="&#57387;" d="M486 334c0 3 0 5-1 7l0 3c-1 2-3 5-5 7l-154 153c-2 2-4 4-7 5-1 0-1 0-2 0-3 2-6 3-9 3l-103 0c-43 0-77-34-77-77l0-25-26 0c-42 0-76-35-76-77l0-256c0-43 34-77 76-77l205 0c43 0 77 34 77 77l0 25 26 0c42 0 76 35 76 77z m-153 91l66-67-41 0c-14 0-25 12-25 26z m0-348c0-14-12-26-26-26l-205 0c-14 0-25 12-25 26l0 256c0 14 11 25 25 25l26 0 0-179c0-42 34-77 77-77l128 0z m102 102c0-14-11-25-25-25l-205 0c-14 0-26 11-26 25l0 256c0 14 12 26 26 26l77 0 0-77c0-42 34-77 76-77l77 0z"/>
<glyph glyph-name="home" unicode="&#57388;" d="M451 365l-146 128c-28 25-70 25-98 0l-146-128c-16-14-25-34-24-55l0-213c0-40 32-73 73-73l292 0c41 0 73 33 73 73l0 213c1 21-8 41-24 55z m-146-317l0-1c0-13 10-23 23-23l-145 0 0 0c13 0 24 11 24 24l0 138c0 18 11 33 25 33l48 0c14 0 25-15 25-33z m122 49c0-14-11-24-25-24l-48 0 0 121c0 41-33 74-74 74l-48 0c-41 0-74-33-74-74l0-121-48 0c-14 0-25 10-25 24l0 213c0 7 3 14 9 19l146 128c9 8 23 8 32 0l146-128c6-5 9-12 9-19z"/>
<glyph glyph-name="change-password" unicode="&#57389;" d="M282 489c127 0 230-104 230-233 0-129-103-233-230-233-6 0-12 3-16 7-5 5-7 10-7 17 0 12 10 23 23 23 102 0 184 83 184 186 0 103-82 186-184 186-62 0-116-30-149-77-12-16-21-34-27-53l32 21c5 4 11 5 17 4 6-2 11-5 15-10 7-11 4-25-6-33l-77-52c-5-3-11-4-17-3-6 1-11 5-15 10l-51 77c-7 11-4 25 6 32 5 4 11 5 17 4 6-1 12-5 15-10l20-29c28 96 116 166 220 166z m-3-93c37 0 68-29 70-66l0-4 0-23c25 0 45-19 47-44l0-3 0-93c0-25-19-45-43-47l-4 0-140 0c-24 0-44 19-46 43l0 4 0 93c0 25 19 45 43 46l3 1 0 23c0 38 32 70 70 70z m70-140l-140 0 0-93 140 0z m-70-23c13 0 24-11 24-24 0-12-11-23-24-23-13 0-23 11-23 23 0 13 10 24 23 24z m0 116c-12 0-21-9-23-20l0-3 0-23 47 0 0 23c0 13-11 23-24 23z"/>
<glyph glyph-name="customer" unicode="&#57390;" d="M102 512l308 0c56 0 102-46 102-102l0-308c0-56-46-102-102-102l-308 0c-56 0-102 46-102 102l0 308c0 56 46 102 102 102z m0-51c-28 0-51-23-51-51l0-308c0-28 23-51 51-51l308 0c28 0 51 23 51 51l0 308c0 28-23 51-51 51z m32-410l-32 0c-7 0-14 2-20 5 11 43 43 79 85 96 9 3 19 2 26-4 7-5 11-15 10-24-2-9-8-17-17-20-24-9-43-29-52-53z m243 0c-9 25-29 44-53 53-9 3-16 11-17 20-2 9 2 18 9 24 7 6 17 7 26 4 43-16 76-52 88-97-7-2-13-4-20-4l-33 0z m-121 359c57 0 102-46 102-103l0-51c0-57-45-102-102-102-57 0-102 45-102 102l0 51c0 57 45 103 102 103z m0-52c-28 0-51-23-51-51l0-51c0-28 23-51 51-51 28 0 51 23 51 51l0 51c0 28-23 51-51 51z"/>
<glyph glyph-name="validation" unicode="&#57391;" d="M72 244c-9 9-24 8-33-1-9-9-9-23-2-33l53-58c5-5 11-8 18-8 6 0 12 3 17 7l162 175c6 6 8 15 5 24-2 8-8 15-17 17-8 2-17 0-23-7l-144-155z m186 0c-9 9-23 8-32-1-9-9-10-23-2-33l53-58c5-5 11-8 17-8 7 0 13 3 17 7l162 175c6 6 8 15 6 24-2 8-9 15-17 17-8 2-17 0-23-7l-144-155z"/>
<glyph glyph-name="validation-expert" unicode="&#57392;" d="M289 408l2-3 33-68 75-10c29-5 42-39 26-62l-3-3-2-2-35-35-3 3c-8 8-18 12-28 12-4 0-9-1-13-2l52 50-95 14-42 85-42-85-95-14 69-67-17-94 85 44 85-44-7 38 31-31c4-4 9-7 15-9-2-26-27-43-51-35l-4 1-3 1-66 35-66-35c-27-14-58 6-58 35l1 4 0 3 13 74-54 52c-22 21-12 56 15 65l4 1 3 1 74 10 33 68c13 26 53 28 68 3z m182-149c5 0 10-2 14-6 7-7 8-18 2-25l-2-2-78-78c-4-4-9-6-14-6-4 0-9 1-12 4l-2 2-3 2 0 0-36 37c-8 7-8 20 0 27 4 4 9 6 14 6 4 0 8-1 12-4l2-2 25-25 64 64c4 4 9 6 14 6z"/>
<glyph glyph-name="warning" unicode="&#57393;" d="M282 444c5-3 10-7 13-13l171-320c8-16 2-35-14-43-4-3-9-4-15-4l-341 0c-18 0-32 14-32 32 0 5 1 10 4 15l170 320c9 16 28 22 44 13z m-16-268c-7 0-14-3-19-8-6-6-8-12-8-20 0-9 2-16 8-21 6-5 12-7 20-7 7 0 14 2 19 7 6 5 9 12 9 21 0 8-3 14-9 20-5 5-12 8-20 8z m2 168c-9 0-16-2-21-6-6-4-8-10-8-18 0-4 0-11 1-21l0-6 6-64c1-9 3-15 6-19 2-4 7-6 14-6 6 0 11 2 14 6 2 4 4 8 5 14l0 4 8 67c1 6 2 12 2 18 0 10-2 18-6 23-3 5-10 8-21 8z"/>
<glyph glyph-name="error" unicode="&#57394;" d="M260 448c108 0 196-88 196-196 0-108-88-196-196-196-108 0-196 88-196 196 0 108 88 196 196 196z m0-252c-8 0-15-3-20-8-5-6-8-12-8-20 0-9 3-16 8-21 6-5 13-7 20-7 8 0 14 2 20 7 5 5 8 12 8 21 0 8-3 14-8 20-6 5-12 8-20 8z m1 168c-8 0-16-2-21-6-5-4-8-10-8-18 0-4 0-11 1-21l1-6 6-64c1-9 3-15 5-19 3-4 7-6 14-6 7 0 11 2 14 6 2 4 4 8 5 14l1 4 8 67c1 6 1 12 1 18 0 10-2 18-5 23-4 5-11 8-22 8z"/>
<glyph glyph-name="template" unicode="&#57395;" d="M43 167l0 4 0 234c0 34 26 62 60 64l4 0 234 0c34 0 62-26 64-60l0-4c34 0 62-26 64-60l0-4 0-21c0-12-9-21-21-21-11 0-20 8-21 19l0 2 0 21c0 11-9 20-19 22l-3 0-234 0c-11 0-20-9-22-19l0-3 0-234c0-11 9-20 19-22l3 0 21 0c12 0 21-9 21-21 0-11-8-20-19-21l-2 0-21 0c-34 0-62 26-64 60l0 4c-34 0-62 26-64 60z m257 114c12 24 48 24 59 0l18-37 41-6c26-3 37-35 20-54l-2-2-29-29 7-40c4-26-22-46-46-36l-2 1-36 19-36-19c-24-12-51 7-49 33l1 3 6 40-29 28c-19 18-9 50 16 56l3 0 40 6z m30-36l-20-40-43-6 31-31-7-43 39 21 38-21-7 43 31 31-43 6z m11 182l-234 0c-11 0-20-9-22-19l0-3 0-234c0-11 9-20 19-22l3 0 0 192c0 34 26 62 60 64l4 0 192 0c0 11-9 20-19 22z"/>
<glyph glyph-name="target-view" unicode="&#57396;" d="M414 335c9 8 22 8 30 0 8-8 8-20 2-28l-2-2-109-106c-7-7-19-8-27-2l-2 1-71 66-90-87c-8-8-20-8-28-2l-2 2c-7 8-8 20-1 28l2 2 104 102c7 7 19 8 27 2l2-2 71-65z m34-250l-363 0 0 363c0 12-9 21-21 21-12 0-21-9-21-21l0-384c0-12 9-21 21-21l384 0c12 0 21 9 21 21 0 12-9 21-21 21z"/>
<glyph glyph-name="refresh" unicode="&#57397;" d="M425 181l-97 0c-12 0-21-9-21-21 0-12 9-22 21-22l51 0c-48-50-122-66-186-40-65 26-107 88-108 158 0 12-9 21-21 21-12 0-21-9-21-21 0-85 51-162 129-196 78-33 169-17 231 42l0-38c0-12 9-21 21-21 12 0 21 9 21 21l0 96c0 11-9 21-20 21z m-105 75c0 35-29 64-64 64-35 0-64-29-64-64 0-35 29-64 64-64 35 0 64 29 64 64z m-85 0c0 12 9 21 21 21 12 0 21-9 21-21 0-12-9-21-21-21-12 0-21 9-21 21z m21 213c-55 0-107-21-147-59l0 38c0 12-9 21-21 21-12 0-21-9-21-21l0-96c0-12 9-21 21-21l96 0c12 0 21 9 21 21 0 12-9 21-21 21l-51 0c48 51 122 67 186 41 65-26 107-88 108-158 0-12 9-21 21-21 12 0 21 9 21 21 0 57-22 111-62 151-40 40-94 62-151 62z"/>
<glyph glyph-name="legend" unicode="&#57398;" d="M88 159c7 16 30 16 38 0l42-85c8-15-3-31-19-31l-85 0c-16 0-26 16-19 31z m19-57l-8-17 16 0z m341 26c12 0 21-10 21-21 0-11-8-20-19-22l-2 0-213 0c-12 0-22 10-22 22 0 11 9 20 19 21l3 0z m-299 192c12 0 22-10 22-21l0-86c0-11-10-21-22-21l-85 0c-12 0-21 10-21 21l0 86c0 11 9 21 21 21z m-21-43l-43 0 0-42 43 0z m320 0c12 0 21-9 21-21 0-11-8-20-19-21l-2 0-213 0c-12 0-22 9-22 21 0 11 9 20 19 21l3 0z m-341 192c35 0 64-28 64-64 0-35-29-64-64-64-36 0-64 29-64 64 0 36 28 64 64 64z m0-42c-12 0-22-10-22-22 0-11 10-21 22-21 11 0 21 10 21 21 0 12-10 22-21 22z m341 0c12 0 21-10 21-22 0-11-8-20-19-21l-2 0-213 0c-12 0-22 10-22 21 0 11 9 20 19 22l3 0z"/>
<glyph glyph-name="sample-assign" unicode="&#57399;" d="M171 469l170 0c71 0 128-57 128-128l0-170c0-71-57-128-128-128l-170 0c-71 0-128 57-128 128l0 170c0 71 57 128 128 128z m0-42c-47 0-86-39-86-86l0-170c0-47 39-86 86-86l170 0c47 0 86 39 86 86l0 170c0 47-39 86-86 86z m128-150l64 0c11 0 21-9 21-21 0-12-10-21-21-21l-64 0c-12 0-22 9-22 21 0 12 10 21 22 21z m-43-85l107 0c11 0 21-10 21-21 0-12-10-22-21-22l-107 0c-12 0-21 10-21 22 0 11 9 21 21 21z m0 171l107 0c11 0 21-10 21-22 0-11-10-21-21-21l-107 0c-12 0-21 10-21 21 0 12 9 22 21 22z m-64-86l21 0c12 0 22-9 22-21 0-12-10-21-22-21l-21 0 0-22c0-11-10-21-21-21-12 0-22 10-22 21l0 22-21 0c-12 0-21 9-21 21 0 12 9 21 21 21l21 0 0 22c0 11 10 21 22 21 11 0 21-10 21-21z"/>
<glyph glyph-name="export-emergency" unicode="&#57400;" d="M107 256l0-141c0-3 0-6 0-8 0-11 8-20 19-22l2 0 128 0c11 0 20 9 21 19l0 3 0 21c0 12 10 21 22 21 11 0 20-8 21-19l0-2 0-21c0-34-27-62-60-64l-4 0-128 0c-34 0-62 26-64 60l0 4c0 86 0 106 0 149z m262 100c8 9 22 9 30 0l85-85c2-2 4-4 5-7 2-5 2-11 0-16-1-3-3-5-5-7l-85-85c-5-6-13-8-21-6-7 2-13 8-15 15-2 8 0 15 6 21l49 49-205 0c-11 0-21 9-21 21 0 12 10 21 21 21l205 0-49 49c-9 9-9 22 0 30z m-305-4c12 0 21-8 21-21 0-12-9-21-21-21-12 0-21 9-21 21 0 13 9 21 21 21z m192 117c34 0 62-26 64-60l0-4 0-21c0-12-10-21-21-21-11 0-20 8-22 18l0 3 0 21c0 11-8 20-19 22l-2 0-107 0 0 42z m-192 43c12 0 20-9 20-20l-4-98c0-10-7-16-16-16-9 0-17 7-17 16l-3 98c0 11 8 20 20 20z"/>
<glyph glyph-name="assay-assign" unicode="&#57401;" d="M169 203l60 0 58 55-30 28z m-43-41c-9-10-17-22-21-35l-7-21 21 7c16 5 30 14 42 25l25 24-60 0z m221 96c4-4 6-9 6-15 0-5-2-10-6-14-8-8-22-8-30 0l-126-120c-17-16-37-27-58-34l-62-20c-11-3-24 2-27 13-2 4-2 9 0 13l20 59c8 21 20 40 36 55l126 120c-4 4-6 9-6 15 0 5 2 10 6 14 9 8 22 8 31 0l90 86c25 24 66 24 91 0 12-11 18-27 18-43 0-16-6-32-18-43l-91-86z m80-109l21 0c12 0 21-9 21-21 0-12-9-21-21-21l-21 0 0-22c0-11-10-21-22-21-11 0-21 10-21 21l0 22-21 0c-12 0-22 9-22 21 0 12 10 21 22 21l21 0 0 22c0 11 10 21 21 21 12 0 22-10 22-21z m-140 166l30-29 90 87c4 3 7 9 7 14 0 5-3 11-7 14-8 8-21 8-30 0z"/>
<glyph glyph-name="group-validation" unicode="&#57402;" d="M299 448c34 0 62-27 64-60l0-4 0-21 21 0c34 0 62-27 64-61l0-3 0-22c0-11-10-21-21-21-11 0-20 8-22 19l0 2 0 22c0 11-8 20-19 21l-2 0-192 0c-11 0-20-8-21-19l0-2 0-192c0-11 8-20 19-22l2 0 21 0c12 0 22-9 22-21 0-11-9-20-19-21l-3 0-21 0c-34 0-62 26-64 60l0 4 0 21-21 0c-34 0-62 27-64 60l0 4 0 192c0 34 26 62 60 64l4 0z m2-43l-2 0-192 0c-11 0-20-8-22-19l0-2 0-192c0-11 9-20 19-21l3 0 21 0 0 128c0 34 27 62 60 64l4 0 128 0 0 21c0 11-8 20-19 21z m141-219c-8 8-22 8-30 0l-72-71-26 26c-9 8-22 8-31 0-8-9-8-22 1-31l41-40c8-8 21-8 30 0l87 86c8 8 8 21 0 30z"/>
<glyph glyph-name="plate-view" unicode="&#57403;" d="M448 235c12 0 21-10 21-22l0-149c0-12-9-21-21-21l-149 0c-12 0-22 9-22 21l0 149c0 12 10 22 22 22z m-235 0c12 0 22-10 22-22l0-149c0-12-10-21-22-21l-149 0c-12 0-21 9-21 21l0 149c0 12 9 22 21 22z m214-43l-107 0 0-107 107 0z m-235 0l-107 0 0-107 107 0z m21 277c12 0 22-9 22-21l0-149c0-12-10-22-22-22l-149 0c-12 0-21 10-21 22l0 149c0 12 9 21 21 21z m235 0c12 0 21-9 21-21l0-149c0-12-9-22-21-22l-149 0c-12 0-22 10-22 22l0 149c0 12 10 21 22 21z m-256-42l-107 0 0-107 107 0z m235 0l-107 0 0-107 107 0z"/>
<glyph glyph-name="sign-out" unicode="&#57404;" d="M213 64c0 12-9 21-21 21l-85 0c-12 0-22 10-22 22l0 298c0 12 10 22 22 22l85 0c12 0 21 9 21 21 0 12-9 21-21 21l-85 0c-36 0-64-28-64-64l0-298c0-36 28-64 64-64l85 0c12 0 21 9 21 21z m250 177c2 2 4 4 5 7 2 5 2 11 0 16-1 3-3 5-5 7l-85 85c-9 9-22 9-30 0-9-8-9-21 0-30l49-49-205 0c-12 0-21-9-21-21 0-12 9-21 21-21l205 0-49-49c-6-6-8-13-6-21 2-7 8-13 15-15 8-2 15 0 21 6z"/>
<glyph glyph-name="sync" unicode="&#57405;" d="M128 356l37 12c8 2 16 0 22-5 6-6 9-15 7-23-2-8-8-14-16-17l-89-27c-6-2-12-1-17 2-6 3-10 8-12 14l-27 89c-2 8 0 16 5 22 6 6 14 9 23 7 8-2 14-8 17-16l10-33c56 86 167 123 266 83 59-25 105-75 125-136 3-8 1-17-5-23-5-6-14-9-22-7-8 2-15 8-17 16-20 63-75 109-140 118-66 9-131-20-167-76z m287-190l-42-11c-8-2-17 1-23 7-5 6-8 14-5 22 2 9 9 15 17 17l85 21c4 2 9 2 14 2 9-2 17-9 19-18l23-90c3-12-5-25-17-28-12-3-25 4-28 17l-8 30c-45-65-123-101-203-92-79 9-148 60-178 134l-6 15c-5 12 1 25 13 30 11 5 25-1 30-12l6-15c24-59 79-100 142-106 64-6 126 23 161 77z"/>
<glyph glyph-name="share" unicode="&#57406;" d="M91 85c10 0 19 7 22 16 19 78 86 136 166 143l0-24c0-15 9-29 23-35 16-7 34-4 46 7l108 94c8 7 13 18 13 29 0 11-5 21-13 28l-108 94c-13 12-31 14-46 7-14-6-24-20-24-35l0-25c-120-9-213-109-214-229 0-18 2-36 7-54 2-9 11-16 21-16z m209 203c-74 0-143-33-188-91 22 86 99 145 188 144 12 0 21 10 21 22l0 41 103-89-103-90 0 42c0 12-10 21-21 21z"/>
<glyph glyph-name="well-view" unicode="&#57407;" d="M384 448c34 0 62-27 64-60l0-4 0-21c0-12-10-22-21-22-11 0-20 9-22 19l0 3 0 21c0 11-8 20-19 21l-2 0-256 0c-11 0-20-8-21-19l0-2 0-256c0-11 8-20 19-21l2 0 21 0c12 0 22-10 22-22 0-11-9-20-19-21l-3 0-21 0c-34 0-62 27-64 60l0 4 0 256c0 34 27 62 60 64l4 0z m-39-131c42-34 51-96 21-141l62-62c8-8 8-22 0-30-9-8-22-8-30 0l-62 62-4-3c-46-27-104-17-137 24-35 43-32 104 7 143 38 39 100 42 143 7z m-113-37c-25-25-25-66 0-91 25-25 65-25 90 0l0 0c17 17 23 40 17 62-6 22-23 40-45 45-22 6-46 0-62-16z"/>
<glyph glyph-name="settings" unicode="&#57408;" d="M256 512c35 0 64-29 64-64l0-2c0-5 3-10 9-13 5-2 11-1 15 3l4 4c12 10 27 16 42 16 17 0 34-7 46-19 12-12 18-28 18-45 0-17-6-33-18-45l-2-1c-4-4-5-10-2-16 0-1 0-2 1-2l0-2 1-1c2-3 5-4 8-5l2 0 4 0c35 0 64-29 64-64 0-35-29-64-64-64l-2 0c-5 0-10-3-13-9-2-5-1-11 3-15l4-4c10-12 16-27 16-42 0-17-7-34-19-46-12-12-28-18-45-18-17 0-33 6-45 18l-1 2c-4 4-10 5-16 2-5-2-8-7-8-12l0-4c0-35-29-64-64-64-36 0-64 29-64 64l0 1c0 6-4 11-11 14-5 2-11 1-15-3l-4-4c-12-10-27-16-42-16-17 0-34 7-46 19-12 12-18 28-18 45 0 17 6 33 18 45l2 1c4 4 5 10 2 16-2 5-7 8-12 8l-4 0c-35 0-64 29-64 64 0 36 29 64 64 64l1 0c6 0 11 4 14 11 2 5 1 11-3 15l-4 4c-10 12-16 27-16 42 0 17 7 34 19 46 12 12 28 18 45 18 17 0 33-6 45-18l1-2c4-4 10-5 16-2 1 0 2 0 2 1l2 0 1 1c3 2 4 5 5 8l0 2 0 4c0 35 29 64 64 64z m0-43c-12 0-21-9-21-21l0-4c0-22-14-43-35-51-2-2-5-2-8-2l-1-1c-18-5-37-1-52 11l-3 3-1 1c-4 4-9 7-15 7-6 0-11-3-15-7-4-4-6-9-6-15 0-5 2-11 6-15l1-1c17-17 21-41 12-61l-1-4c-9-20-29-33-51-33l-2 0c-12 0-21-10-21-22 0-11 9-21 21-21l4 0c22 0 43-14 51-34 10-21 5-46-11-63l-1-1c-4-4-7-9-7-15 0-6 3-11 7-15 4-4 9-6 15-6 5 0 11 2 15 6l1 1c17 17 41 21 61 12l4-1c20-9 33-29 33-51l0-2c0-12 10-21 22-21 11 0 21 9 21 21l0 4c0 22 14 43 34 51 21 10 46 5 63-11l1-1c4-4 9-7 15-7 6 0 11 3 15 7 4 4 6 9 6 15 0 5-2 11-6 15l-1 1c-17 17-21 41-12 62 9 21 29 35 52 35l2 0c12 0 21 9 21 21 0 12-9 21-21 21l-4 0c-22 0-43 14-51 35-2 2-2 5-2 8l-1 1c-5 18-1 37 11 52l3 3 1 1c4 4 7 9 7 15 0 6-3 11-7 15-4 4-9 6-15 6-5 0-11-2-15-6l-1-1c-17-17-41-21-62-12-21 9-35 29-35 52l0 2c0 12-9 21-21 21z m0-128c47 0 85-38 85-85 0-47-38-85-85-85-47 0-85 38-85 85 0 47 38 85 85 85z m0-42c-24 0-43-19-43-43 0-24 19-43 43-43 24 0 43 19 43 43 0 24-19 43-43 43z"/>
<glyph glyph-name="less" unicode="&#57409;" d="M384 235l-256 0c-12 0-21 9-21 21 0 12 9 21 21 21l256 0c12 0 21-9 21-21 0-12-9-21-21-21z"/>
<glyph glyph-name="layers" unicode="&#57410;" d="M427 139l-342 0 0 213 22 0 0 21-32 0c-6 0-11-4-11-10l0-235c0-6 5-11 11-11l362 0c6 0 11 5 11 11l0 53-21 0z m74 320l-362 0c-6 0-11-5-11-11l0-235c0-6 5-10 11-10l362 0c6 0 11 4 11 10l0 235c0 6-5 11-11 11z m-10-235l-342 0 0 213 342 0z m-128-171l-342 0 0 214 22 0 0 21-32 0c-6 0-11-5-11-11l0-234c0-6 5-11 11-11l362 0c6 0 11 5 11 11l0 53-21 0z"/>
</font>
</defs>
</svg>
