<svg width="24" height="24" viewBox="0 0 512 512" xmlns="http://www.w3.org/2000/svg"><path d="m169 309l60 0 58-55-30-28z m-43 41c-9 10-17 22-21 35l-7 21 21-7c16-5 30-14 42-25l25-24-60 0z m221-96c4 4 6 9 6 15 0 5-2 10-6 14-8 8-22 8-30 0l-126 120c-17 16-37 27-58 34l-62 20c-11 3-24-2-27-13-2-4-2-9 0-13l20-59c8-21 20-40 36-55l126-120c-4-4-6-9-6-15 0-5 2-10 6-14 9-8 22-8 31 0l90-86c25-24 66-24 91 0 12 11 18 27 18 43 0 16-6 32-18 43l-91 86z m80 109l21 0c12 0 21 9 21 21 0 12-9 21-21 21l-21 0 0 22c0 11-10 21-22 21-11 0-21-10-21-21l0-22-21 0c-12 0-22-9-22-21 0-12 10-21 22-21l21 0 0-22c0-11 10-21 21-21 12 0 22 10 22 21z m-140-166l30 29 90-87c4-3 7-9 7-14 0-5-3-11-7-14-8-8-21-8-30 0z"></path></svg>