<svg width="24" height="24" viewBox="0 0 512 512" xmlns="http://www.w3.org/2000/svg"><path d="m256 277c-12 0-21-9-21-21l0-85c0-12 9-22 21-22 12 0 21 10 21 22l0 85c0 12-9 21-21 21z m8 84c-5 2-11 2-16 0-3-1-5-3-7-5-2-2-4-4-5-7-1-2-1-5-1-8 0-5 2-11 6-15 2-2 4-3 7-4 6-3 14-2 20 2 6 4 9 10 9 17 0 6-2 11-6 15-2 2-4 4-7 5z m-8 108c-118 0-213-95-213-213 0-118 95-213 213-213 118 0 213 95 213 213 0 57-22 111-62 151-40 40-94 62-151 62z m0-384c-94 0-171 77-171 171 0 94 77 171 171 171 94 0 171-77 171-171 0-45-18-89-50-121-32-32-76-50-121-50z"></path></svg>