<svg width="24" height="24" viewBox="0 0 512 512" xmlns="http://www.w3.org/2000/svg"><path d="m341 43c12 0 22 9 22 21l0 21 21 0c35 0 64 29 64 64l0 256c0 36-29 64-64 64l-256 0c-35 0-64-28-64-64l0-256c0-35 29-64 64-64l21 0 0-21c0-12 10-21 22-21 11 0 21 9 21 21l0 21 128 0 0-21c0-12 10-21 21-21z m64 234l-298 0 0 128c0 12 9 22 21 22l256 0c12 0 21-10 21-22z m-234 43c11 0 21 10 21 21 0 12-10 22-21 22-12 0-22-10-22-22 0-11 10-21 22-21z m170 0c12 0 22 10 22 21 0 12-10 22-22 22l-85 0c-12 0-21-10-21-22 0-11 9-21 21-21z m-192-192l-21 0c-12 0-21 10-21 21l0 86 298 0 0-86c0-11-9-21-21-21l-21 0 0 21c0 12-10 22-22 22-11 0-21-10-21-22l0-21-128 0 0 21c0 12-10 22-21 22-12 0-22-10-22-22z"></path></svg>