<svg width="24" height="24" viewBox="0 0 512 512" xmlns="http://www.w3.org/2000/svg"><path d="m282 23c127 0 230 104 230 233 0 129-103 233-230 233-6 0-12-3-16-7-5-5-7-10-7-17 0-12 10-23 23-23 102 0 184-83 184-186 0-103-82-186-184-186-62 0-116 30-149 77-12 16-21 34-27 53l32-21c5-4 11-5 17-4 6 2 11 5 15 10 7 11 4 25-6 33l-77 52c-5 3-11 4-17 3-6-1-11-5-15-10l-51-77c-7-11-4-25 6-32 5-4 11-5 17-4 6 1 12 5 15 10l20 29c28-96 116-166 220-166z m-3 93c37 0 68 29 70 66l0 4 0 23c25 0 45 19 47 44l0 3 0 93c0 25-19 45-43 47l-4 0-140 0c-24 0-44-19-46-43l0-4 0-93c0-25 19-45 43-46l3-1 0-23c0-38 32-70 70-70z m70 140l-140 0 0 93 140 0z m-70 23c13 0 24 11 24 24 0 12-11 23-24 23-13 0-23-11-23-23 0-13 10-24 23-24z m0-116c-12 0-21 9-23 20l0 3 0 23 47 0 0-23c0-13-11-23-24-23z"></path></svg>