<svg width="24" height="24" viewBox="0 0 512 512" xmlns="http://www.w3.org/2000/svg"><path d="m102 0l308 0c56 0 102 46 102 102l0 308c0 56-46 102-102 102l-308 0c-56 0-102-46-102-102l0-308c0-56 46-102 102-102z m0 51c-28 0-51 23-51 51l0 308c0 28 23 51 51 51l308 0c28 0 51-23 51-51l0-308c0-28-23-51-51-51z m32 410l-32 0c-7 0-14-2-20-5 11-43 43-79 85-96 9-3 19-2 26 4 7 5 11 15 10 24-2 9-8 17-17 20-24 9-43 29-52 53z m243 0c-9-25-29-44-53-53-9-3-16-11-17-20-2-9 2-18 9-24 7-6 17-7 26-4 43 16 76 52 88 97-7 2-13 4-20 4l-33 0z m-121-359c57 0 102 46 102 103l0 51c0 57-45 102-102 102-57 0-102-45-102-102l0-51c0-57 45-103 102-103z m0 52c-28 0-51 23-51 51l0 51c0 28 23 51 51 51 28 0 51-23 51-51l0-51c0-28-23-51-51-51z"></path></svg>