<svg width="24" height="24" viewBox="0 0 512 512" xmlns="http://www.w3.org/2000/svg"><path d="m299 21c34 0 62 27 64 61l0 3 0 22 85 0c12 0 21 9 21 21 0 11-8 20-19 21l-2 0-21 0 0 278c0 34-27 62-61 64l-3 0-214 0c-34 0-62-27-64-61l0-3 0-278-21 0c-12 0-21-9-21-21 0-11 8-20 19-21l2 0 85 0 0-22c0-34 27-62 61-64l3 0z m85 128l-256 0 0 278c0 11 8 20 19 21l2 0 214 0c11 0 20-8 21-19l0-2z m-171 64c11 0 20 9 22 19l0 3 0 128c0 11-10 21-22 21-11 0-20-8-21-19l0-2 0-128c0-12 10-22 21-22z m86 0c11 0 20 9 21 19l0 3 0 128c0 11-10 21-21 21-11 0-20-8-22-19l0-2 0-128c0-12 10-22 22-22z m0-149l-86 0c-11 0-20 8-21 19l0 2 0 22 128 0 0-22c0-11-8-20-19-21z"></path></svg>