<svg width="24" height="24" viewBox="0 0 512 512" xmlns="http://www.w3.org/2000/svg"><path d="m480 0c18 0 32 14 32 32l0 448c0 18-14 32-32 32l-448 0c-18 0-32-14-32-32l0-448c0-18 14-32 32-32z m-397 237c-10 0-19 8-19 19 0 77 46 146 116 176 71 30 152 16 208-37l0 34c0 10 9 19 19 19 11 0 19-9 19-19l0-87c0-10-8-18-18-19l-87 0c-11 0-19 9-19 20 0 10 8 19 19 19l46 0c-43 45-110 59-168 36-58-23-96-79-97-142 0-11-8-19-19-19z m173-173c-49 0-97 19-132 53l0-34c0-10-9-19-19-19-11 0-19 9-19 19l0 87c0 10 8 19 19 19l86 0c11 0 19-9 19-19 0-11-8-20-19-20l-46 0c43-45 110-59 168-36 58 23 96 79 97 142 0 11 8 19 19 19 10 0 19-8 19-19 0-51-20-100-56-136-36-36-85-56-136-56z"></path></svg>