<svg width="24" height="24" viewBox="0 0 512 512" xmlns="http://www.w3.org/2000/svg"><path d="m256 43c34 0 62 26 64 60l0 4 0 21c0 12-10 21-21 21-11 0-20-8-22-18l0-3 0-21c0-11-8-20-19-22l-2 0-128 0c-11 0-20 9-21 19l0 3 0 298c0 11 8 20 19 22l2 0 128 0c11 0 20-9 21-19l0-3 0-21c0-12 10-21 22-21 11 0 20 8 21 19l0 2 0 21c0 34-27 62-60 64l-4 0-128 0c-34 0-62-26-64-60l0-4 0-298c0-34 27-62 60-64l4 0z m113 113c8-9 22-9 30 0l85 85c2 2 4 4 5 7 2 5 2 11 0 16-1 3-3 5-5 7l-85 85c-5 6-13 8-21 6-7-2-13-8-15-15-2-8 0-15 6-21l49-49-205 0c-11 0-21-9-21-21 0-12 10-21 21-21l205 0-49-49c-9-9-9-22 0-30z"></path></svg>