<svg width="24" height="24" viewBox="0 0 512 512" xmlns="http://www.w3.org/2000/svg"><path d="m451 147l-146-128c-28-25-70-25-98 0l-146 128c-16 14-25 34-24 55l0 213c0 40 32 73 73 73l292 0c41 0 73-33 73-73l0-213c1-21-8-41-24-55z m-146 317l0 1c0 13 10 23 23 23l-145 0 0 0c13 0 24-11 24-24l0-138c0-18 11-33 25-33l48 0c14 0 25 15 25 33z m122-49c0 14-11 24-25 24l-48 0 0-121c0-41-33-74-74-74l-48 0c-41 0-74 33-74 74l0 121-48 0c-14 0-25-10-25-24l0-213c0-7 3-14 9-19l146-128c9-8 23-8 32 0l146 128c6 5 9 12 9 19z"></path></svg>