<svg width="24" height="24" viewBox="0 0 512 512" xmlns="http://www.w3.org/2000/svg"><path d="m32 0l308 0c-5 3-9 7-14 12-20 20-31 41-32 61-1 20 6 38 20 52 16 16 34 23 52 19 10-2 23-8 41-18l7-4 26-17c10-6 18-10 25-11 7-2 14 0 19 5 9 9 11 20 5 33-3 7-9 14-17 22-13 14-26 20-39 19-5-1-11-3-18-8l-4-3-33 33c17 16 37 24 58 21 22-2 44-14 65-35 4-4 8-8 11-12l0 311c0 18-14 32-32 32l-448 0c-18 0-32-14-32-32l0-448c0-18 14-32 32-32l308 0z m72 244l-34 34 163 163 33-34z m147-147l-115 116 162 162 34-34-68-68 71-71-28-29-72 72-37-38 82-81z m229-97c18 0 32 14 32 32l0 29c-14-13-29-18-45-16-10 1-21 5-34 12l-6 4-40 24c-11 7-18 11-23 12-8 2-15 0-21-6-6-6-8-13-7-22 2-9 7-18 16-26 8-8 16-14 24-16 11-4 21-2 30 5l4 3 32-33-2-2z"></path></svg>