<svg width="24" height="24" viewBox="0 0 512 512" xmlns="http://www.w3.org/2000/svg"><path d="m469 256c0-57-22-111-62-151-40-40-94-62-151-62-118 0-213 95-213 213 0 118 95 213 213 213 118 0 213-95 213-213z m-44-21l-62 0c-4-51-21-99-50-140 61 22 104 76 112 140z m-231 42l126 0c-5 53-28 103-64 141-36-38-58-88-62-141z m0-42c5-53 27-102 62-141 36 38 59 88 64 141z m7-140c-29 41-46 89-50 140l-64 0c8-65 53-120 114-140z m-114 182l64 0c3 51 21 99 50 140-62-21-106-75-114-140z m225 140c29-41 47-89 51-140l63 0c-9 65-53 119-114 140z"></path></svg>