<svg width="24" height="24" viewBox="0 0 512 512" xmlns="http://www.w3.org/2000/svg"><path d="m88 353c7-16 30-16 38 0l42 85c8 15-3 31-19 31l-85 0c-16 0-26-16-19-31z m19 57l-8 17 16 0z m341-26c12 0 21 10 21 21 0 11-8 20-19 22l-2 0-213 0c-12 0-22-10-22-22 0-11 9-20 19-21l3 0z m-299-192c12 0 22 10 22 21l0 86c0 11-10 21-22 21l-85 0c-12 0-21-10-21-21l0-86c0-11 9-21 21-21z m-21 43l-43 0 0 42 43 0z m320 0c12 0 21 9 21 21 0 11-8 20-19 21l-2 0-213 0c-12 0-22-9-22-21 0-11 9-20 19-21l3 0z m-341-192c35 0 64 28 64 64 0 35-29 64-64 64-36 0-64-29-64-64 0-36 28-64 64-64z m0 42c-12 0-22 10-22 22 0 11 10 21 22 21 11 0 21-10 21-21 0-12-10-22-21-22z m341 0c12 0 21 10 21 22 0 11-8 20-19 21l-2 0-213 0c-12 0-22-10-22-21 0-11 9-20 19-22l3 0z"></path></svg>