<svg width="24" height="24" viewBox="0 0 512 512" xmlns="http://www.w3.org/2000/svg"><path d="m486 178c0-3 0-5-1-7l0-3c-1-2-3-5-5-7l-154-153c-2-2-4-4-7-5-1 0-1 0-2 0-3-2-6-3-9-3l-103 0c-43 0-77 34-77 77l0 25-26 0c-42 0-76 35-76 77l0 256c0 43 34 77 76 77l205 0c43 0 77-34 77-77l0-25 26 0c42 0 76-35 76-77z m-153-91l66 67-41 0c-14 0-25-12-25-26z m0 348c0 14-12 26-26 26l-205 0c-14 0-25-12-25-26l0-256c0-14 11-25 25-25l26 0 0 179c0 42 34 77 77 77l128 0z m102-102c0 14-11 25-25 25l-205 0c-14 0-26-11-26-25l0-256c0-14 12-26 26-26l77 0 0 77c0 42 34 77 76 77l77 0z"></path></svg>