<svg width="24" height="24" viewBox="0 0 512 512" xmlns="http://www.w3.org/2000/svg"><path d="m480 0c18 0 32 14 32 32l0 448c0 18-14 32-32 32l-448 0c-18 0-32-14-32-32l0-448c0-18 14-32 32-32z m-367 170l-66 0 0 176 34 0 0-67 32 0c18 0 32-5 43-15 10-9 15-22 15-39 0-17-5-31-15-41-11-9-25-14-43-14z m141 0l-62 0 0 176 61 0c20 0 36-5 48-16 11-11 17-29 17-54l0-36c0-25-6-43-17-54-11-11-27-16-47-16z m204 0l-112 0 0 176 33 0 0-73 68 0 0-29-68 0 0-45 79 0z m-204 29c10 0 18 3 23 10 5 7 7 18 7 33l0 34c0 14-2 24-7 31-5 7-13 10-23 10l-28 0 0-118z m-142 0c8 0 14 2 19 7 4 4 6 11 6 19 0 8-2 14-6 18-5 5-11 7-19 7l-31 0 0-51z"></path></svg>