<svg width="24" height="24" viewBox="0 0 512 512" xmlns="http://www.w3.org/2000/svg"><path d="m448 277c12 0 21 10 21 22l0 149c0 12-9 21-21 21l-149 0c-12 0-22-9-22-21l0-149c0-12 10-22 22-22z m-235 0c12 0 22 10 22 22l0 149c0 12-10 21-22 21l-149 0c-12 0-21-9-21-21l0-149c0-12 9-22 21-22z m214 43l-107 0 0 107 107 0z m-235 0l-107 0 0 107 107 0z m21-277c12 0 22 9 22 21l0 149c0 12-10 22-22 22l-149 0c-12 0-21-10-21-22l0-149c0-12 9-21 21-21z m235 0c12 0 21 9 21 21l0 149c0 12-9 22-21 22l-149 0c-12 0-22-10-22-22l0-149c0-12 10-21 22-21z m-256 42l-107 0 0 107 107 0z m235 0l-107 0 0 107 107 0z"></path></svg>