<svg width="24" height="24" viewBox="0 0 512 512" xmlns="http://www.w3.org/2000/svg"><path d="m149 213c-11 0-21 10-21 22 0 11 10 21 21 21 12 0 22-10 22-21 0-12-10-22-22-22z m256-85l-21 0 0-64c0-12-10-21-21-21l-214 0c-11 0-21 9-21 21l0 64-21 0c-36 0-64 29-64 64l0 128c0 35 28 64 64 64l21 0 0 64c0 12 10 21 21 21l214 0c11 0 21-9 21-21l0-64 21 0c36 0 64-29 64-64l0-128c0-35-28-64-64-64z m-234-43l170 0 0 43-170 0z m170 342l-170 0 0-86 170 0z m86-107c0 12-10 21-22 21l-21 0 0-21c0-12-10-21-21-21l-214 0c-11 0-21 9-21 21l0 21-21 0c-12 0-22-9-22-21l0-128c0-12 10-21 22-21l298 0c12 0 22 9 22 21z"></path></svg>