<svg width="24" height="24" viewBox="0 0 512 512" xmlns="http://www.w3.org/2000/svg"><path d="m384 245l-146 147c-3 3-7 5-11 6l-93 23c-17 4-33-11-29-28l24-93c1-4 3-8 6-11l221-221c6-7 14-12 22-15l-1 0c-4-4-10-6-16-6l-140 0 0 139 0 3c-1 11-9 19-18 20l-3 0-142 0 0 233c0 13 11 23 23 23l280 0c13 0 23-10 23-23z m42-144c-10-10-27-10-37 0l-217 216-12 49 49-12 217-216c9-10 10-25 2-35z m-246-27l-89 89 89 0z m251 125l0 243c0 39-32 70-70 70l-280 0c-38 0-69-31-69-70l0-256c0-6 2-12 6-16l163-163c5-5 11-7 17-7l163 0c31 0 58 21 67 49l0 1c12 3 22 9 31 18 28 28 28 74 0 103z"></path></svg>