<svg width="24" height="24" viewBox="0 0 512 512" xmlns="http://www.w3.org/2000/svg"><path d="m189 301c0 3 1 6 2 8 2 6 6 10 12 12 2 1 5 2 8 2l90 0c12 0 22-10 22-22 0-12-10-21-22-21l-39 0 54-54c9-8 9-22 0-30-8-9-21-9-30 0l-54 54 0-39c0-6-2-11-6-15-4-4-10-7-15-7-6 0-11 3-15 7-4 4-7 9-7 15z m-84 106c83 83 219 83 302 0 83-83 83-219 0-302-83-83-219-83-302 0-40 40-62 94-62 151 0 57 22 111 62 151z m272-272c66 67 66 175 0 242-67 66-175 66-242 0-66-67-66-175 0-242 32-32 76-50 121-50 45 0 89 18 121 50z"></path></svg>