<svg width="24" height="24" viewBox="0 0 512 512" xmlns="http://www.w3.org/2000/svg"><path d="m425 331l-97 0c-12 0-21 9-21 21 0 12 9 22 21 22l51 0c-48 50-122 66-186 40-65-26-107-88-108-158 0-12-9-21-21-21-12 0-21 9-21 21 0 85 51 162 129 196 78 33 169 17 231-42l0 38c0 12 9 21 21 21 12 0 21-9 21-21l0-96c0-11-9-21-20-21z m-105-75c0-35-29-64-64-64-35 0-64 29-64 64 0 35 29 64 64 64 35 0 64-29 64-64z m-85 0c0-12 9-21 21-21 12 0 21 9 21 21 0 12-9 21-21 21-12 0-21-9-21-21z m21-213c-55 0-107 21-147 59l0-38c0-12-9-21-21-21-12 0-21 9-21 21l0 96c0 12 9 21 21 21l96 0c12 0 21-9 21-21 0-12-9-21-21-21l-51 0c48-51 122-67 186-41 65 26 107 88 108 158 0 12 9 21 21 21 12 0 21-9 21-21 0-57-22-111-62-151-40-40-94-62-151-62z"></path></svg>