<svg width="24" height="24" viewBox="0 0 512 512" xmlns="http://www.w3.org/2000/svg"><path d="m256 102c-14 0-26 12-26 26l0 256c0 14 12 26 26 26 14 0 26-12 26-26l0-256c0-14-12-26-26-26z m-128 154c-14 0-26 11-26 26l0 102c0 14 12 26 26 26 14 0 26-12 26-26l0-102c0-15-12-26-26-26z m256-51c-14 0-26 11-26 25l0 154c0 14 12 26 26 26 14 0 26-12 26-26l0-154c0-14-12-25-26-25z m51-205l-358 0c-43 0-77 34-77 77l0 358c0 43 34 77 77 77l358 0c43 0 77-34 77-77l0-358c0-43-34-77-77-77z m26 435c0 14-12 26-26 26l-358 0c-14 0-26-12-26-26l0-358c0-14 12-26 26-26l358 0c14 0 26 12 26 26z"></path></svg>