<svg width="24" height="24" viewBox="0 0 512 512" xmlns="http://www.w3.org/2000/svg"><path d="m171 43l170 0c71 0 128 57 128 128l0 170c0 71-57 128-128 128l-170 0c-71 0-128-57-128-128l0-170c0-71 57-128 128-128z m0 42c-47 0-86 39-86 86l0 170c0 47 39 86 86 86l170 0c47 0 86-39 86-86l0-170c0-47-39-86-86-86z m128 150l64 0c11 0 21 9 21 21 0 12-10 21-21 21l-64 0c-12 0-22-9-22-21 0-12 10-21 22-21z m-43 85l107 0c11 0 21 10 21 21 0 12-10 22-21 22l-107 0c-12 0-21-10-21-22 0-11 9-21 21-21z m0-171l107 0c11 0 21 10 21 22 0 11-10 21-21 21l-107 0c-12 0-21-10-21-21 0-12 9-22 21-22z m-64 86l21 0c12 0 22 9 22 21 0 12-10 21-22 21l-21 0 0 22c0 11-10 21-21 21-12 0-22-10-22-21l0-22-21 0c-12 0-21-9-21-21 0-12 9-21 21-21l21 0 0-22c0-11 10-21 22-21 11 0 21 10 21 21z"></path></svg>