<svg width="24" height="24" viewBox="0 0 512 512" xmlns="http://www.w3.org/2000/svg"><path d="m480 0c18 0 32 14 32 32l0 448c0 18-14 32-32 32l-448 0c-18 0-32-14-32-32l0-448c0-18 14-32 32-32z m-198 160l-54 0-48 122c-6-27-34-38-52-42-47-12-50-18-50-27 0-24 62-13 78-7 4-12 13-35 13-35 0 0-17-11-69-11-53 0-68 32-68 53 0 20 11 43 40 52 31 9 54 11 54 26 0 16-52 19-82 0l-12 40c0 0 17 14 68 14 27 0 49-7 63-19l-7 19 54 0 9-27c11 4 23 7 37 7 14 0 26-3 37-7l9 27 85 0 0-46 23 0c39 0 70-31 70-69 0-39-31-70-70-70l-69 0 0 147z m-26 53l23 66c-6 5-14 6-23 6-9 0-17-1-23-6z m154-7c13 0 24 11 24 24 0 12-11 23-24 23l-23 0 0-47z"></path></svg>