<svg width="24" height="24" viewBox="0 0 512 512" xmlns="http://www.w3.org/2000/svg"><path d="m256 0c35 0 64 29 64 64l0 2c0 5 3 10 9 13 5 2 11 1 15-3l4-4c12-10 27-16 42-16 17 0 34 7 46 19 12 12 18 28 18 45 0 17-6 33-18 45l-2 1c-4 4-5 10-2 16 0 1 0 2 1 2l0 2 1 1c2 3 5 4 8 5l2 0 4 0c35 0 64 29 64 64 0 35-29 64-64 64l-2 0c-5 0-10 3-13 9-2 5-1 11 3 15l4 4c10 12 16 27 16 42 0 17-7 34-19 46-12 12-28 18-45 18-17 0-33-6-45-18l-1-2c-4-4-10-5-16-2-5 2-8 7-8 12l0 4c0 35-29 64-64 64-36 0-64-29-64-64l0-1c0-6-4-11-11-14-5-2-11-1-15 3l-4 4c-12 10-27 16-42 16-17 0-34-7-46-19-12-12-18-28-18-45 0-17 6-33 18-45l2-1c4-4 5-10 2-16-2-5-7-8-12-8l-4 0c-35 0-64-29-64-64 0-36 29-64 64-64l1 0c6 0 11-4 14-11 2-5 1-11-3-15l-4-4c-10-12-16-27-16-42 0-17 7-34 19-46 12-12 28-18 45-18 17 0 33 6 45 18l1 2c4 4 10 5 16 2 1 0 2 0 2-1l2 0 1-1c3-2 4-5 5-8l0-2 0-4c0-35 29-64 64-64z m0 43c-12 0-21 9-21 21l0 4c0 22-14 43-35 51-2 2-5 2-8 2l-1 1c-18 5-37 1-52-11l-3-3-1-1c-4-4-9-7-15-7-6 0-11 3-15 7-4 4-6 9-6 15 0 5 2 11 6 15l1 1c17 17 21 41 12 61l-1 4c-9 20-29 33-51 33l-2 0c-12 0-21 10-21 22 0 11 9 21 21 21l4 0c22 0 43 14 51 34 10 21 5 46-11 63l-1 1c-4 4-7 9-7 15 0 6 3 11 7 15 4 4 9 6 15 6 5 0 11-2 15-6l1-1c17-17 41-21 61-12l4 1c20 9 33 29 33 51l0 2c0 12 10 21 22 21 11 0 21-9 21-21l0-4c0-22 14-43 34-51 21-10 46-5 63 11l1 1c4 4 9 7 15 7 6 0 11-3 15-7 4-4 6-9 6-15 0-5-2-11-6-15l-1-1c-17-17-21-41-12-62 9-21 29-35 52-35l2 0c12 0 21-9 21-21 0-12-9-21-21-21l-4 0c-22 0-43-14-51-35-2-2-2-5-2-8l-1-1c-5-18-1-37 11-52l3-3 1-1c4-4 7-9 7-15 0-6-3-11-7-15-4-4-9-6-15-6-5 0-11 2-15 6l-1 1c-17 17-41 21-62 12-21-9-35-29-35-52l0-2c0-12-9-21-21-21z m0 128c47 0 85 38 85 85 0 47-38 85-85 85-47 0-85-38-85-85 0-47 38-85 85-85z m0 42c-24 0-43 19-43 43 0 24 19 43 43 43 24 0 43-19 43-43 0-24-19-43-43-43z"></path></svg>