<svg width="24" height="24" viewBox="0 0 512 512" xmlns="http://www.w3.org/2000/svg"><path d="m43 345l0-4 0-234c0-34 26-62 60-64l4 0 234 0c34 0 62 26 64 60l0 4c34 0 62 26 64 60l0 4 0 21c0 12-9 21-21 21-11 0-20-8-21-19l0-2 0-21c0-11-9-20-19-22l-3 0-234 0c-11 0-20 9-22 19l0 3 0 234c0 11 9 20 19 22l3 0 21 0c12 0 21 9 21 21 0 11-8 20-19 21l-2 0-21 0c-34 0-62-26-64-60l0-4c-34 0-62-26-64-60z m257-114c12-24 48-24 59 0l18 37 41 6c26 3 37 35 20 54l-2 2-29 29 7 40c4 26-22 46-46 36l-2-1-36-19-36 19c-24 12-51-7-49-33l1-3 6-40-29-28c-19-18-9-50 16-56l3 0 40-6z m30 36l-20 40-43 6 31 31-7 43 39-21 38 21-7-43 31-31-43-6z m11-182l-234 0c-11 0-20 9-22 19l0 3 0 234c0 11 9 20 19 22l3 0 0-192c0-34 26-62 60-64l4 0 192 0c0-11-9-20-19-22z"></path></svg>