<svg width="24" height="24" viewBox="0 0 512 512" xmlns="http://www.w3.org/2000/svg"><path d="m316 262c13-15 21-34 21-53 0-45-36-81-80-81-45 0-81 36-81 81 0 19 8 38 21 53-38 19-64 56-69 98-1 12 7 23 19 24 12 1 22-7 24-19 5-43 41-75 84-75 43 0 80 32 85 75 1 11 11 20 23 19l2 0c12-1 20-12 19-23-5-43-30-80-68-99z m-60-15c-15 0-29-10-35-24-6-14-3-30 8-41 11-11 27-14 42-8 14 5 23 19 23 35 0 21-17 38-38 38z m149-204l-298 0c-36 0-64 28-64 64l0 298c0 36 28 64 64 64l298 0c36 0 64-28 64-64l0-298c0-36-28-64-64-64z m22 362c0 12-10 22-22 22l-298 0c-12 0-22-10-22-22l0-298c0-12 10-22 22-22l298 0c12 0 22 10 22 22z"></path></svg>