<svg width="24" height="24" viewBox="0 0 512 512" xmlns="http://www.w3.org/2000/svg"><path d="m384 64c34 0 62 27 64 60l0 4 0 21c0 12-10 22-21 22-11 0-20-9-22-19l0-3 0-21c0-11-8-20-19-21l-2 0-256 0c-11 0-20 8-21 19l0 2 0 256c0 11 8 20 19 21l2 0 21 0c12 0 22 10 22 22 0 11-9 20-19 21l-3 0-21 0c-34 0-62-27-64-60l0-4 0-256c0-34 27-62 60-64l4 0z m-39 131c42 34 51 96 21 141l62 62c8 8 8 22 0 30-9 8-22 8-30 0l-62-62-4 3c-46 27-104 17-137-24-35-43-32-104 7-143 38-39 100-42 143-7z m-113 37c-25 25-25 66 0 91 25 25 65 25 90 0l0 0c17-17 23-40 17-62-6-22-23-40-45-45-22-6-46 0-62 16z"></path></svg>