<svg width="24" height="24" viewBox="0 0 512 512" xmlns="http://www.w3.org/2000/svg"><path d="m98 270c9-4 18-2 25 3 7 6 10 14 9 23-1 9-7 16-16 19-33 13-55 46-55 81l0 43c0 13 11 24 24 24l195 0c14 0 25-11 25-24l0-40c0-37-23-70-58-84-8-3-14-10-16-19-1-8 2-17 9-23 7-5 16-7 25-3 53 20 89 71 89 129l0 40c0 40-33 73-74 73l-195 0c-40 0-73-33-73-73l0-43c0-55 34-106 86-126z m85-246c54 0 97 44 97 98l0 49c0 54-43 97-97 97-54 0-98-43-98-97l0-49c0-54 44-98 98-98z m0 49c-27 0-49 22-49 49l0 49c0 27 22 48 49 48 27 0 49-21 49-48l0-49c0-27-22-49-49-49z m219 415c-13 0-24-11-24-25 0-13 11-24 24-24l25 0c13 0 24-11 24-25l0-44c0-36-23-67-56-79-9-2-15-9-17-18-1-8 2-17 8-23 7-6 16-8 24-5 54 18 90 68 90 125l0 44c0 41-33 74-73 74z m-73-439c-13 0-24-11-24-25 0-13 11-24 24-24 54 0 98 44 98 98l0 48c0 54-44 98-98 98-13 0-24-11-24-25 0-13 11-24 24-24 27 0 49-22 49-49l0-48c0-27-22-49-49-49z"></path></svg>