<svg width="24" height="24" viewBox="0 0 512 512" xmlns="http://www.w3.org/2000/svg"><path d="m358 77c41 0 75 32 77 72l0 5 0 156c44 12 77 52 77 100 0 56-46 102-102 102-57 0-103-46-103-102 0-48 33-88 77-100l0-156c0-14-10-24-23-26l-3 0-51 0c-14 0-25-11-25-26 0-13 9-24 22-25l3 0z m-230-77c57 0 102 46 102 102 0 48-32 88-76 100l0 223 58-59c10-10 27-10 37 0 10 10 10 26 0 36l-103 103c-2 2-5 4-8 5-6 3-13 3-20 0-3-1-6-3-8-5l-102-103c-7-6-10-16-7-25 2-9 9-15 18-18 9-2 18 0 25 7l59 59 0-223c-45-12-77-52-77-100 0-56 45-102 102-102z m282 358c-29 0-52 23-52 52 0 28 23 51 52 51 28 0 51-23 51-51 0-29-23-52-51-52z m-282-307c-28 0-51 23-51 51 0 29 23 52 51 52l0 0 0 0c0 0 0 0 0 0 28-1 51-23 51-52 0-28-23-51-51-51z"></path></svg>